<?xml version="1.0" encoding="UTF-8" standalone="no"?>
<svg
   xmlns:dc="http://purl.org/dc/elements/1.1/"
   xmlns:cc="http://creativecommons.org/ns#"
   xmlns:rdf="http://www.w3.org/1999/02/22-rdf-syntax-ns#"
   xmlns:svg="http://www.w3.org/2000/svg"
   xmlns="http://www.w3.org/2000/svg"
   xmlns:sodipodi="http://sodipodi.sourceforge.net/DTD/sodipodi-0.dtd"
   xmlns:inkscape="http://www.inkscape.org/namespaces/inkscape"
   version="1.1"
   viewBox="0 0 406.88 181.64"
   id="svg1482"
   sodipodi:docname="spaceships.svg"
   inkscape:version="0.92.5 (2060ec1f9f, 2020-04-08)">
  <metadata
     id="metadata1486">
    <rdf:RDF>
      <cc:Work
         rdf:about="">
        <dc:format>image/svg+xml</dc:format>
        <dc:type
           rdf:resource="http://purl.org/dc/dcmitype/StillImage" />
      </cc:Work>
    </rdf:RDF>
  </metadata>
  <sodipodi:namedview
     pagecolor="#ffffff"
     bordercolor="#666666"
     borderopacity="1"
     objecttolerance="10"
     gridtolerance="10"
     guidetolerance="10"
     inkscape:pageopacity="0"
     inkscape:pageshadow="2"
     inkscape:window-width="2560"
     inkscape:window-height="1377"
     id="namedview1484"
     showgrid="false"
     inkscape:zoom="4.7687303"
     inkscape:cx="143.50697"
     inkscape:cy="82.34121"
     inkscape:window-x="-8"
     inkscape:window-y="-8"
     inkscape:window-maximized="1"
     inkscape:current-layer="svg1482" />
  <defs
     id="defs1432">
    <filter
       id="a"
       color-interpolation-filters="sRGB">
      <feGaussianBlur
         stdDeviation="1.2020428"
         id="feGaussianBlur1429" />
    </filter>
  </defs>
  <g
     transform="translate(-170.39918,-103.52071)"
     id="g1480">
    <g
       transform="matrix(1.3835,0,0,1.3835,431.95,-60.529)"
       id="g1462">
      <g
         transform="matrix(1,0,0,0.87385,-63.037,32.278)"
         id="g1446">
        <path
           d="m -89.562,128.19 c -13.103,6.874 -23.147,18.18 -27.75,31.719 13.964,14.952 34.436,24.406 57.281,24.406 22.845,0 43.348,-9.4541 57.312,-24.406 -4.6058,-13.547 -14.666,-24.846 -27.781,-31.719 0.03456,0.52069 0.0625,1.0341 0.0625,1.5625 0,14.531 -13.246,20.312 -29.594,20.312 -16.348,0 -29.594,-5.7814 -29.594,-20.312 0,-0.52836 0.02795,-1.0418 0.0625,-1.5625 z m 77.812,23.5 c 1.5405,0.0248 2.8446,0.59943 3.5312,1.6875 1.3733,2.1761 -0.20303,5.6497 -3.5312,7.75 -3.3282,2.1003 -7.158,2.0199 -8.5312,-0.15625 -1.3732,-2.17615 0.20303,-5.6497 3.5312,-7.75 1.6641,-1.0502 3.4595,-1.5561 5,-1.5312 z m -94.938,1.3125 c 0.24761,-0.0112 0.49139,-0.0146 0.75,0 1.2413,0.0701 2.592,0.45355 3.9062,1.125 3.5046,1.7905 5.3895,5.0835 4.2188,7.375 -1.1707,2.2915 -4.9642,2.6968 -8.4688,0.90625 -3.5046,-1.79055 -5.3895,-5.0835 -4.2188,-7.375 0.64025,-1.2532 2.0793,-1.9529 3.8125,-2.0312 z m 22.75,10.188 c 0.31551,-0.0194 0.63741,-0.0153 0.96875,0 0.88358,0.0409 1.8149,0.22542 2.75,0.53125 3.7406,1.2233 6.1124,4.1792 5.3125,6.625 -0.7999,2.4458 -4.4782,3.4421 -8.2188,2.2188 -3.7406,-1.2233 -6.1124,-4.2105 -5.3125,-6.6562 0.52491,-1.605 2.2914,-2.5831 4.5,-2.7188 z m 49.344,1.0312 c 2.2158,0.0809 4.0263,1.0345 4.5938,2.625 0.86475,2.4236 -1.4496,5.4587 -5.1562,6.7812 -3.7066,1.3225 -7.4165,0.42357 -8.2812,-2 -0.8647,-2.42357 1.4496,-5.4587 5.1562,-6.7812 0.92666,-0.33064 1.8366,-0.52931 2.7188,-0.59375 0.33082,-0.0242 0.6522,-0.0428 0.96875,-0.0312 z m -24.594,4.4688 c 3.9355,0 7.125,2.083 7.125,4.6562 0,2.5732 -3.1895,4.6562 -7.125,4.6562 -3.9355,0 -7.125,-2.083 -7.125,-4.6562 0,-2.5732 3.1895,-4.6562 7.125,-4.6562 z"
           id="path1434"
           inkscape:connector-curvature="0"
           style="fill:#000080" />
        <path
           d="m -4.4762,165.18 c -12.49,13.259 -33.173,21.814 -56.472,21.53 -21.305,-0.25948 -40.224,-7.8588 -52.61,-19.521 6.7853,17.531 28.12,30.499 53.573,30.809 27.056,0.3296 49.825,-13.739 55.509,-32.818 z"
           id="path1436"
           inkscape:connector-curvature="0" />
        <path
           d="m -60.031,108.13 c -14.985,0 -27.125,9.9736 -27.125,22.269 0,12.295 12.14,17.192 27.125,17.192 14.985,0 27.156,-4.8967 27.156,-17.192 0,-12.295 -12.171,-22.269 -27.156,-22.269 z m -0.8125,2.7692 c -11.33,8.4324 -15.142,19.162 -10.969,32.365 -4.6619,-1.8298 -9.4098,-3.5206 -12.062,-8.5961 -0.40078,-16.623 12.49,-22.507 23.031,-23.769 z"
           id="path1438"
           inkscape:connector-curvature="0"
           style="fill:#6c5353" />
        <path
           d="m -104.31,184.26 c 4.9703,3.9456 9.37,6.8684 14.252,9.3185 -7.7891,4.3276 -13.883,9.5029 -17.541,15.896 -0.89182,7.4043 -1.8848,15.213 -3.2889,24.667 -1.8985,-1.0691 -4.6898,-24.855 -4.3852,-37.274 2.9903,-5.0324 5.9572,-10.094 10.963,-12.607 z"
           id="path1440"
           inkscape:connector-curvature="0"
           style="fill:#ff00ff;stroke:#000000;stroke-width:1px" />
        <path
           d="m -13.677,184.26 c -4.9703,3.9456 -9.37,6.8684 -14.252,9.3185 7.7891,4.3276 13.883,9.5029 17.541,15.896 0.89182,7.4043 1.8848,15.213 3.2889,24.667 1.8985,-1.0691 4.6897,-24.855 4.3852,-37.274 -2.9903,-5.0324 -5.9572,-10.094 -10.963,-12.607 z"
           id="path1442"
           inkscape:connector-curvature="0"
           style="fill:#ff00ff;stroke:#000000;stroke-width:1px" />
        <path
           d="m -66.788,199.94 c 5.839,0.71186 11.176,0.52274 16.327,0 -8.462,6.304 -6.2107,16.105 -7.775,24.661 -1.6624,-9.287 -1.6969,-20.035 -8.5525,-24.661 z"
           id="path1444"
           inkscape:connector-curvature="0"
           style="fill:#ff00ff;stroke:#000000;stroke-width:1.26699996px;stroke-linecap:round;stroke-linejoin:round" />
      </g>
      <g
         transform="matrix(1,0,0,0.87385,-60.276,34.25)"
         id="g1460"
         style="opacity:0.52777997;filter:url(#a)">
        <path
           d="m -89.562,128.19 c -13.103,6.874 -23.147,18.18 -27.75,31.719 13.964,14.952 34.436,24.406 57.281,24.406 22.845,0 43.348,-9.4541 57.312,-24.406 -4.6058,-13.547 -14.666,-24.846 -27.781,-31.719 0.03456,0.52069 0.0625,1.0341 0.0625,1.5625 0,14.531 -13.246,20.312 -29.594,20.312 -16.348,0 -29.594,-5.7814 -29.594,-20.312 0,-0.52836 0.02795,-1.0418 0.0625,-1.5625 z m 77.812,23.5 c 1.5405,0.0248 2.8446,0.59943 3.5312,1.6875 1.3733,2.1761 -0.20303,5.6497 -3.5312,7.75 -3.3282,2.1003 -7.158,2.0199 -8.5312,-0.15625 -1.3732,-2.17615 0.20303,-5.6497 3.5312,-7.75 1.6641,-1.0502 3.4595,-1.5561 5,-1.5312 z m -94.938,1.3125 c 0.24761,-0.0112 0.49139,-0.0146 0.75,0 1.2413,0.0701 2.592,0.45355 3.9062,1.125 3.5046,1.7905 5.3895,5.0835 4.2188,7.375 -1.1707,2.2915 -4.9642,2.6968 -8.4688,0.90625 -3.5046,-1.79055 -5.3895,-5.0835 -4.2188,-7.375 0.64025,-1.2532 2.0793,-1.9529 3.8125,-2.0312 z m 22.75,10.188 c 0.31551,-0.0194 0.63741,-0.0153 0.96875,0 0.88358,0.0409 1.8149,0.22542 2.75,0.53125 3.7406,1.2233 6.1124,4.1792 5.3125,6.625 -0.7999,2.4458 -4.4782,3.4421 -8.2188,2.2188 -3.7406,-1.2233 -6.1124,-4.2105 -5.3125,-6.6562 0.52491,-1.605 2.2914,-2.5831 4.5,-2.7188 z m 49.344,1.0312 c 2.2158,0.0809 4.0263,1.0345 4.5938,2.625 0.86475,2.4236 -1.4496,5.4587 -5.1562,6.7812 -3.7066,1.3225 -7.4165,0.42357 -8.2812,-2 -0.8647,-2.42357 1.4496,-5.4587 5.1562,-6.7812 0.92666,-0.33064 1.8366,-0.52931 2.7188,-0.59375 0.33082,-0.0242 0.6522,-0.0428 0.96875,-0.0312 z m -24.594,4.4688 c 3.9355,0 7.125,2.083 7.125,4.6562 0,2.5732 -3.1895,4.6562 -7.125,4.6562 -3.9355,0 -7.125,-2.083 -7.125,-4.6562 0,-2.5732 3.1895,-4.6562 7.125,-4.6562 z"
           id="path1448"
           inkscape:connector-curvature="0" />
        <path
           d="m -4.4762,165.18 c -12.49,13.259 -33.173,21.814 -56.472,21.53 -21.305,-0.25948 -40.224,-7.8588 -52.61,-19.521 6.7853,17.531 28.12,30.499 53.573,30.809 27.056,0.3296 49.825,-13.739 55.509,-32.818 z"
           id="path1450"
           inkscape:connector-curvature="0" />
        <path
           d="m -60.031,108.13 c -14.985,0 -27.125,9.9736 -27.125,22.269 0,12.295 12.14,17.192 27.125,17.192 14.985,0 27.156,-4.8967 27.156,-17.192 0,-12.295 -12.171,-22.269 -27.156,-22.269 z m -0.8125,2.7692 c -11.33,8.4324 -15.142,19.162 -10.969,32.365 -4.6619,-1.8298 -9.4098,-3.5206 -12.062,-8.5961 -0.40078,-16.623 12.49,-22.507 23.031,-23.769 z"
           id="path1452"
           inkscape:connector-curvature="0" />
        <path
           d="m -104.31,184.26 c 4.9703,3.9456 9.37,6.8684 14.252,9.3185 -7.7891,4.3276 -13.883,9.5029 -17.541,15.896 -0.89182,7.4043 -1.8848,15.213 -3.2889,24.667 -1.8985,-1.0691 -4.6898,-24.855 -4.3852,-37.274 2.9903,-5.0324 5.9572,-10.094 10.963,-12.607 z"
           id="path1454"
           inkscape:connector-curvature="0"
           style="stroke:#000000;stroke-width:1px" />
        <path
           d="m -13.677,184.26 c -4.9703,3.9456 -9.37,6.8684 -14.252,9.3185 7.7891,4.3276 13.883,9.5029 17.541,15.896 0.89182,7.4043 1.8848,15.213 3.2889,24.667 1.8985,-1.0691 4.6897,-24.855 4.3852,-37.274 -2.9903,-5.0324 -5.9572,-10.094 -10.963,-12.607 z"
           id="path1456"
           inkscape:connector-curvature="0"
           style="stroke:#000000;stroke-width:1px" />
        <path
           d="m -66.788,199.94 c 5.839,0.71186 11.176,0.52274 16.327,0 -8.462,6.304 -6.2107,16.105 -7.775,24.661 -1.6624,-9.287 -1.6969,-20.035 -8.5525,-24.661 z"
           id="path1458"
           inkscape:connector-curvature="0"
           style="stroke:#000000;stroke-width:1.26699996px;stroke-linecap:round;stroke-linejoin:round" />
      </g>
    </g>
    <g
       transform="matrix(1.0773,0,0,1.0773,123.48,45.229)"
       id="g1478">
      <g
         transform="matrix(1.2698,0,0,1.1096,389.99,-52.029)"
         id="g1476" />
    </g>
  </g>
</svg>
